<svg width="70" height="60" viewBox="0 0 70 60" fill="none" xmlns="http://www.w3.org/2000/svg">
    <path d="M0 0H70V60H0V0Z" fill="#EFEFEF"/>
    <path fill-rule="evenodd" clip-rule="evenodd" d="M68 2H2V58H68V2ZM0 0V60H70V0H0Z" fill="url(#paint0_linear)"/>
    <path d="M35.608 38.56C33.912 41.056 31.8 43.024 29.272 44.464C26.776 45.904 23.864 46.624 20.536 46.624C17.304 46.624 14.344 45.888 11.656 44.416C9 42.944 6.888 40.912 5.32 38.32C3.784 35.728 3.016 32.832 3.016 29.632C3.016 26.304 3.752 23.328 5.224 20.704C6.696 18.08 8.664 16.048 11.128 14.608C13.624 13.136 16.312 12.4 19.192 12.4C23.32 12.4 26.664 13.776 29.224 16.528V13.072H34.936V24.16L30.808 24.544C29.816 22.368 28.44 20.64 26.68 19.36C24.92 18.08 22.744 17.44 20.152 17.44C18.328 17.44 16.6 17.936 14.968 18.928C13.368 19.888 12.072 21.296 11.08 23.152C10.12 24.976 9.64 27.104 9.64 29.536C9.64 31.776 10.12 33.808 11.08 35.632C12.04 37.424 13.352 38.848 15.016 39.904C16.68 40.928 18.52 41.44 20.536 41.44C23.032 41.44 25.128 40.912 26.824 39.856C28.552 38.768 30.104 37.216 31.48 35.2L35.608 38.56Z" fill="url(#paint1_linear)"/>
    <path d="M51.464 21.304C53.984 21.304 56.336 21.76 58.52 22.672C60.728 23.56 62.504 24.928 63.848 26.776C65.216 28.624 65.9 30.916 65.9 33.652C65.9 36.364 65.216 38.656 63.848 40.528C62.504 42.376 60.728 43.756 58.52 44.668C56.336 45.556 53.984 46 51.464 46H39.26V42.22H43.58V25.084H39.26V21.304H51.464ZM50.96 42.22C53.744 42.22 56.096 41.572 58.016 40.276C59.96 38.98 60.932 36.772 60.932 33.652C60.932 30.532 59.96 28.324 58.016 27.028C56.096 25.732 53.744 25.084 50.96 25.084H48.368V42.22H50.96Z" fill="url(#paint2_linear)"/>
    <defs>
        <linearGradient id="paint0_linear" x1="34.4776" y1="0" x2="34.4776" y2="60" gradientUnits="userSpaceOnUse">
            <stop offset="0.0416667" stop-color="#E76F00"/>
            <stop offset="0.291667" stop-color="#414141"/>
            <stop offset="0.75" stop-color="#414141"/>
            <stop offset="0.942708" stop-color="#E76F00"/>
        </linearGradient>
        <linearGradient id="paint1_linear" x1="-6" y1="29" x2="38" y2="15" gradientUnits="userSpaceOnUse">
            <stop offset="0.609375" stop-color="#414141"/>
            <stop offset="0.630208" stop-color="#E76F00"/>
        </linearGradient>
        <linearGradient id="paint2_linear" x1="33" y1="33" x2="73" y2="20" gradientUnits="userSpaceOnUse">
            <stop offset="0.479167" stop-color="#E76F00"/>
            <stop offset="0.5" stop-color="#414141"/>
        </linearGradient>
    </defs>
</svg>
