<svg xmlns="http://www.w3.org/2000/svg" width="146" height="60" fill="none"><path fill-rule="evenodd" clip-rule="evenodd" d="M131.595 59.432h8.98v-2.816h-5.711V47.84h-3.269v11.593zm-10.798 0h8.979v-2.816h-5.711V47.84h-3.268v11.593zm-14.757 0h3.436l.843-2.07h4.549l.859 2.07h3.504l-5.02-11.676h-3.151l-5.02 11.676zm5.239-4.571l1.331-3.296 1.314 3.296h-2.645zm-18.194 4.654h2.848l2.358-6.675 2.376 6.675h2.847l3.942-11.676h-3.386l-2.055 6.707-2.275-6.74h-2.813l-2.275 6.74-2.055-6.707h-3.454l3.942 11.676zm-18.547-.083h9.569V56.7h-6.335v-1.84h5.661v-2.534h-5.66V50.57h6.25v-2.73h-9.485v11.593zm-12.948 0h3.269v-4.405h4.195v4.405h3.268V47.84h-3.268v4.34h-4.195v-4.34h-3.27v11.593zm-8.952 0h3.268v-8.778h3.539v-2.815H49.1v2.815h3.538v8.778zm-18.632 0h3.269v-4.14h5.576v-2.667h-5.576v-1.971h6.166v-2.815h-9.435v11.593zm-11.337 0h3.268v-4.14h5.577v-2.667h-5.576v-1.971h6.166v-2.815h-9.435v11.593zM7.933 53.668c0 3.33 2.696 5.995 6.335 5.995s6.368-2.699 6.368-6.028v-.033c0-3.329-2.695-5.995-6.334-5.995-3.64 0-6.369 2.7-6.369 6.028v.033zm9.367 0c0 1.673-1.196 3.097-2.998 3.097-1.786 0-3.016-1.457-3.016-3.13v-.033c0-1.672 1.196-3.097 2.982-3.097 1.802 0 3.032 1.458 3.032 3.13v.033zm125.905-1.15h2.206l.421-4.732h-2.206l-.421 4.731zm-141-4.732H0l.421 4.731h2.206l-.421-4.731zm137.491 4.731h2.205l.421-4.731h-2.206l-.42 4.731zm-133.56 0H3.931l-.422-4.731h2.206l.421 4.731z" fill="#0A0B09"/><path fill-rule="evenodd" clip-rule="evenodd" d="M58.106 28.661l2.93-8.742 2.892 8.742h-5.822zm-11.09 8.872h7.565l1.412-4.114h10.012l1.45 4.114h7.447l-9.53-26.298h-8.013L47.016 37.533zm80.869-1.636c0 .127-.089.216-.255.216h-.329v-.436h.321c.162 0 .263.073.263.22zm.332-.02c0-.309-.228-.49-.583-.49h-.66v1.487h.327v-.479h.259l.317.479h.382l-.363-.533c.19-.07.321-.22.321-.463zm.567.29a1.23 1.23 0 0 1-1.239 1.247 1.22 1.22 0 0 1-1.232-1.239 1.23 1.23 0 0 1 1.24-1.247 1.22 1.22 0 0 1 1.231 1.24zm.162 0c0-.764-.61-1.394-1.393-1.394-.784 0-1.402.637-1.402 1.402 0 .764.61 1.394 1.394 1.394.783 0 1.401-.637 1.401-1.402zm-44.343-11.93l9.846 13.296h6.161V11.235H93.5v14.302l-8.932-14.302h-6.809v26.298h6.844V24.236zM19.365.34c.052.227 13.268 37.193 13.268 37.193h7.885l12.145-30.76h75.429l.573-6.433h-81.8L36.788 25.844 27.712.34h-8.347zM126.42 18.67h-6.338c-.615-1.557-1.3-2.772-4.854-2.772-2.453 0-3.498 1.011-3.498 2.027 0 1.107.873 2.042 3.58 2.642l5.742 1.532c3.757 1.005 5.581 3.987 5.581 7.139 0 1.753-.379 3.872-2.043 5.604-1.244 1.295-3.125 3.003-9.362 3.003-8.577 0-11.396-5.421-11.396-8.698h6.678c.657 2.392 2.298 3.303 5.551 3.303 2.252 0 4.186-.803 4.186-2.527 0-1.639-1.399-2.256-3.21-2.75l-4.536-1.225c-2.187-.665-4.016-1.198-5.306-2.292-3.38-2.863-3.134-8.035.542-10.723 2.034-1.488 4.121-2.265 7.43-2.265 3.889 0 6.109 1.11 7.86 2.315 1.551 1.067 3.393 3.642 3.393 5.686z" fill="#C2242B"/></svg>
